<svg width="480" height="423" viewBox="0 0 480 423" fill="none" xmlns="http://www.w3.org/2000/svg">
<path d="M151.568 355.251C138.439 363.717 123.635 386.306 116.233 395.477C108.831 404.649 108.844 417.827 105.738 421.354C102.631 424.882 91.8927 414.06 94.2321 406.06C96.5716 398.06 100.624 396.422 99.7292 392.655C98.8343 388.889 96.6227 386.533 99.0133 381.594C101.404 376.656 108.32 381.368 115.249 376.656C122.178 371.944 129.094 351.711 137.684 330.546C146.275 309.382 164.428 309.835 166.576 306.547C168.724 303.259 180.894 260.425 193.32 262.554C205.746 264.683 228.194 286.314 221.048 298.131C213.902 309.948 205.528 309.671 195.48 316.487C185.432 323.303 186.647 324.726 179.961 331.781C173.275 338.836 168.455 340.02 164.914 340.953C164.914 340.953 159.903 346.37 156.796 350.363C153.69 354.357 151.568 355.251 151.568 355.251Z" fill="white"/>
<path d="M127.65 368.051C131.779 360.417 144.179 342.074 157.052 330.874C169.926 319.674 210.809 302.856 210.809 302.856L218.76 301.293C219.571 300.263 220.318 299.186 220.997 298.068C228.156 286.314 205.721 264.671 193.307 262.554C180.894 260.438 168.711 303.246 166.564 306.547C164.416 309.848 146.276 309.369 137.672 330.546C129.069 351.724 122.152 371.957 115.236 376.656C108.32 381.355 101.391 376.656 99.0009 381.594C96.6103 386.533 98.758 388.889 99.7168 392.655C100.676 396.422 96.6103 398.073 94.2197 406.06C91.8291 414.047 102.58 424.882 105.725 421.354C106.901 419.562 107.705 417.558 108.09 415.458C106.123 410.229 105.555 404.589 106.441 399.08C108.026 386.394 123.508 375.698 127.65 368.051Z" fill="#3FB0F0"/>
<path opacity="0.5" d="M127.65 368.051C131.779 360.417 144.179 342.074 157.052 330.874C169.926 319.674 210.809 302.856 210.809 302.856L218.76 301.293C219.571 300.263 220.318 299.186 220.997 298.068C228.156 286.314 205.721 264.671 193.307 262.554C180.894 260.438 168.711 303.246 166.564 306.547C164.416 309.848 146.276 309.369 137.672 330.546C129.069 351.724 122.152 371.957 115.236 376.656C108.32 381.355 101.391 376.656 99.0009 381.594C96.6103 386.533 98.758 388.889 99.7168 392.655C100.676 396.422 96.6103 398.073 94.2197 406.06C91.8291 414.047 102.58 424.882 105.725 421.354C106.901 419.562 107.705 417.558 108.09 415.458C106.123 410.229 105.555 404.589 106.441 399.08C108.026 386.394 123.508 375.698 127.65 368.051Z" fill="white"/>
<path d="M151.568 355.251C138.439 363.717 123.635 386.306 116.233 395.477C108.831 404.649 108.844 417.827 105.738 421.354C102.631 424.882 91.8927 414.06 94.2321 406.06C96.5716 398.06 100.624 396.422 99.7292 392.655C98.8343 388.889 96.6227 386.533 99.0133 381.594C101.404 376.656 108.32 381.368 115.249 376.656C122.178 371.944 129.094 351.711 137.684 330.546C146.275 309.382 164.428 309.835 166.576 306.547C168.724 303.259 180.894 260.425 193.32 262.554C205.746 264.683 228.194 286.314 221.048 298.131C213.902 309.948 205.528 309.671 195.48 316.487C185.432 323.303 186.647 324.726 179.961 331.781C173.275 338.836 168.455 340.02 164.914 340.953C164.914 340.953 159.903 346.37 156.796 350.363C153.69 354.357 151.568 355.251 151.568 355.251Z" stroke="#001F30" stroke-miterlimit="10" stroke-linecap="round"/>
<path d="M149.754 356.511C146.844 356.334 143.987 355.669 141.303 354.546C136.062 352.379 134.004 346.773 133.237 341.809C126.64 358.502 120.964 372.801 115.339 376.656C108.411 381.367 101.494 376.656 99.1039 381.594C96.7133 386.533 98.861 388.889 99.8198 392.655C100.779 396.422 96.7133 398.073 94.3227 406.06C91.9322 414.047 102.683 424.882 105.828 421.354C108.973 417.827 108.935 404.649 116.324 395.477C123.368 386.722 137.098 365.771 149.754 356.511Z" fill="#3FB0F0"/>
<path opacity="0.2" d="M105.738 421.354C105.919 421.141 106.082 420.914 106.224 420.674L106.339 420.485C106.48 420.233 106.62 419.956 106.761 419.641C106.761 419.641 106.761 419.527 106.825 419.477C106.94 419.2 107.055 418.91 107.157 418.608C107.197 418.513 107.231 418.416 107.259 418.318C107.387 417.965 107.502 417.6 107.617 417.222L107.732 416.819C107.809 416.529 107.899 416.227 107.988 415.912L108.103 415.458C106.136 410.229 105.568 404.589 106.454 399.081C108.001 386.344 123.508 375.648 127.65 368.001C130.738 362.558 134.175 357.315 137.941 352.304C135.115 349.582 133.811 345.501 133.236 341.771L132.111 344.593L131.932 345.072L130.807 347.894L129.746 350.54L129.567 350.981C129.222 351.837 128.877 352.681 128.532 353.5L128.353 353.941C128.008 354.785 127.662 355.617 127.317 356.461L126.295 358.829L126.103 359.27C125.77 360.026 125.438 360.757 125.106 361.475L124.952 361.828L124.019 363.818L123.917 364.032C123.584 364.713 123.265 365.368 122.945 365.998C122.881 366.136 122.805 366.262 122.741 366.376C122.421 367.006 122.101 367.636 121.782 368.202L121.667 368.417L120.759 369.991L120.619 370.231C120.299 370.76 119.992 371.251 119.673 371.73L119.481 372.007C119.161 372.486 118.842 372.927 118.535 373.342L118.445 373.443C118.151 373.834 117.844 374.199 117.55 374.539L117.384 374.728C117.077 375.081 116.758 375.383 116.451 375.673L116.272 375.837C115.968 376.108 115.648 376.36 115.313 376.593C113.415 377.872 111.213 378.645 108.921 378.835C107.643 378.961 106.544 378.961 105.457 378.974C104.457 378.958 103.457 379.017 102.465 379.15C101.731 379.212 101.027 379.465 100.425 379.884C99.8233 380.302 99.345 380.871 99.0394 381.531C98.3939 382.772 98.0235 384.133 97.9528 385.525C97.9393 385.976 97.965 386.427 98.0295 386.873C98.0554 387.085 98.0938 387.295 98.1445 387.503C98.5025 389.178 99.2823 390.715 99.7553 392.542C99.8626 392.975 99.9099 393.42 99.8959 393.865C99.7937 395.553 98.6175 396.977 97.3392 399.181C96.026 401.294 95.0029 403.569 94.2966 405.947C93.7526 408.031 93.8731 410.231 94.6418 412.246C95.2081 413.818 95.9909 415.306 96.9684 416.668C97.288 417.121 97.6204 417.549 97.9656 417.927C100.727 421.304 104.191 423.118 105.738 421.354Z" fill="black"/>
<path d="M149.754 356.511C146.844 356.334 143.987 355.669 141.303 354.546C136.062 352.379 134.004 346.773 133.237 341.809C126.64 358.502 120.964 372.801 115.339 376.656C108.411 381.367 101.494 376.656 99.1039 381.594C96.7133 386.533 98.861 388.889 99.8198 392.655C100.779 396.422 96.7133 398.073 94.3227 406.06C91.9322 414.047 102.683 424.882 105.828 421.354C108.973 417.827 108.935 404.649 116.324 395.477C123.368 386.722 137.098 365.771 149.754 356.511Z" stroke="#001F30" stroke-miterlimit="10" stroke-linecap="round"/>
<path d="M93.9644 229.371C93.9644 229.371 105.662 244.891 118.075 244.715C130.488 244.539 137.724 233.704 144.103 234.448C148.818 235.151 153.44 236.368 157.884 238.076C157.884 238.076 202.218 179.532 212.42 169.617C222.621 159.703 228.515 148.352 214.503 144.849C200.492 141.347 171.23 147.558 156.554 160.269C141.878 172.981 95.3706 223.563 95.3706 223.563L93.9644 229.371Z" fill="#3FB0F0"/>
<path opacity="0.5" d="M93.9644 229.371C93.9644 229.371 105.662 244.891 118.075 244.715C130.488 244.539 137.724 233.704 144.103 234.448C148.818 235.151 153.44 236.368 157.884 238.076C157.884 238.076 202.218 179.532 212.42 169.617C222.621 159.703 228.515 148.352 214.503 144.849C200.492 141.347 171.23 147.558 156.554 160.269C141.878 172.981 95.3706 223.563 95.3706 223.563L93.9644 229.371Z" fill="black" stroke="#001F30" stroke-miterlimit="10" stroke-linecap="round"/>
<path d="M93.9644 229.371C93.9644 229.371 105.662 244.891 118.075 244.715C130.488 244.539 137.724 233.704 144.103 234.448C148.818 235.151 153.44 236.368 157.884 238.076C157.884 238.076 202.218 179.532 212.42 169.617C222.621 159.703 228.515 148.352 214.503 144.849C200.492 141.347 171.23 147.558 156.554 160.269C141.878 172.981 95.3706 223.563 95.3706 223.563L93.9644 229.371Z" stroke="#001F30" stroke-miterlimit="10" stroke-linecap="round"/>
<path d="M261.434 92.6803C261.434 92.6803 265.013 84.2143 272.172 80.4474C276.945 78.1019 282.181 76.812 287.513 76.668L306.126 65.3296C306.126 65.3296 311.38 47.4402 329.29 40.1333C347.2 32.8263 423.354 5.55125 424.07 5.08512C424.786 4.61898 433.619 0.373398 433.619 1.0789C433.629 2.29071 433.385 3.49152 432.903 4.60639C432.188 6.49612 414.52 17.7841 414.52 17.7841C414.52 17.7841 423.111 12.6062 423.354 15.2645C423.597 17.9227 423.354 18.5526 420.247 20.4423C417.141 22.332 411.414 25.8469 410.225 26.5524C409.036 27.2579 404.498 31.4909 400.905 31.9696C397.313 32.4484 388.262 33.1413 387.546 33.8468C386.83 34.5523 363.423 56.9014 355.791 63.2635C348.159 69.6256 335.733 75.4964 335.733 75.4964C335.733 75.4964 319.025 93.1338 306.33 102.318C293.636 111.502 285.084 113.845 285.084 113.845L284.125 114.777C284.125 114.777 284.841 123.017 284.841 123.962C284.841 124.906 291.77 148.188 288.676 161.126C285.582 174.065 279.599 179.482 279.599 179.482C279.599 179.482 278.653 194.776 274.831 200.42C271.009 206.064 260.5 212.892 253.098 218.309C245.697 223.727 244.751 235.72 244.265 237.131C243.779 238.542 237.873 262.542 234.715 268.412C231.558 274.283 221.931 277.596 220.333 278.063C219.464 278.314 210.567 291.618 202.001 290.963C196.461 290.577 191.249 288.23 187.328 284.354C183.407 280.478 181.04 275.335 180.665 269.874C180.529 267.549 180.615 265.216 180.921 262.907C182.826 248.545 188.591 242.586 188.591 242.586C188.591 242.586 200.825 195.481 199.624 183.009C198.422 170.537 198.192 162.777 201.771 155.722C205.351 148.667 217.048 137.845 235.201 130.072C253.354 122.299 255.489 117.133 255.489 108.201C255.673 102.522 257.764 97.0631 261.434 92.6803V92.6803Z" fill="white"/>
<path d="M288.01 138.916L287.869 138.853C287.869 138.853 286.834 154.134 284.251 164.326C281.669 174.518 270.816 181.132 270.816 181.132L265.127 196.414C265.127 196.414 252.202 208.117 243.931 208.117C235.66 208.117 234.586 201.503 234.586 201.503C226.801 194.978 209.913 190.48 198.957 193.025C197.244 206.366 192.476 226.549 190.009 236.551C194.624 238.983 202.026 241.276 212.879 240.218C224.092 239.012 235.044 236.083 245.337 231.537C246.424 227.254 248.533 221.585 253.008 218.322L255.5 216.52C248.009 219.594 238.498 229.61 231.505 230.53C223.745 231.55 221.163 230.026 221.687 226.964C222.211 223.903 232.963 225.843 236.67 224.445C240.377 223.046 237.194 222.416 229.434 221.396C221.674 220.375 223.234 217.314 223.234 217.314C223.234 217.314 235.826 218.347 238.217 217.314C240.607 216.281 257.393 212.275 265.063 205.598C272.733 198.921 273.398 184.748 273.398 184.748L279.355 181.812C279.483 180.414 279.534 179.545 279.534 179.545C279.534 179.545 285.504 174.14 288.611 161.189C290.106 154.915 289.275 146.298 288.01 138.916Z" fill="#3FB0F0"/>
<path d="M351.112 57.9219C336.181 64.2966 333.215 62.3313 333.215 62.3313C334.509 63.2506 335.723 64.2746 336.845 65.3926C339.006 67.4587 336.193 74.098 328.229 79.9939C320.265 85.8899 294.377 101.6 289.903 101.6C285.429 101.6 285.429 86.8977 285.429 86.8977C283.545 96.0168 283.165 105.376 284.304 114.614L285.032 113.908C285.032 113.908 293.623 111.552 306.279 102.381C318.935 93.2094 335.682 75.5594 335.682 75.5594C335.682 75.5594 348.095 69.676 355.74 63.3265C359.933 59.8368 368.869 51.522 376.194 44.6182C368.153 49.6139 359.772 54.059 351.112 57.9219V57.9219Z" fill="#3FB0F0"/>
<path opacity="0.5" d="M351.112 57.9219C336.181 64.2966 333.215 62.3313 333.215 62.3313C334.509 63.2506 335.723 64.2746 336.845 65.3926C339.006 67.4587 336.193 74.098 328.229 79.9939C320.265 85.8899 294.377 101.6 289.903 101.6C285.429 101.6 285.429 86.8977 285.429 86.8977C283.545 96.0168 283.165 105.376 284.304 114.614L285.032 113.908C285.032 113.908 293.623 111.552 306.279 102.381C318.935 93.2094 335.682 75.5594 335.682 75.5594C335.682 75.5594 348.095 69.676 355.74 63.3265C359.933 59.8368 368.869 51.522 376.194 44.6182C368.153 49.6139 359.772 54.059 351.112 57.9219V57.9219Z" fill="white"/>
<path opacity="0.5" d="M288.01 138.916L287.869 138.853C287.869 138.853 286.834 154.134 284.251 164.326C281.669 174.518 270.816 181.132 270.816 181.132L265.127 196.414C265.127 196.414 252.202 208.117 243.931 208.117C235.66 208.117 234.586 201.503 234.586 201.503C226.801 194.978 209.913 190.48 198.957 193.025C197.244 206.366 192.476 226.549 190.009 236.551C194.624 238.983 202.026 241.276 212.879 240.218C224.092 239.012 235.044 236.083 245.337 231.537C246.424 227.254 248.533 221.585 253.008 218.322L255.5 216.52C248.009 219.594 238.498 229.61 231.505 230.53C223.745 231.55 221.163 230.026 221.687 226.964C222.211 223.903 232.963 225.843 236.67 224.445C240.377 223.046 237.194 222.416 229.434 221.396C221.674 220.375 223.234 217.314 223.234 217.314C223.234 217.314 235.826 218.347 238.217 217.314C240.607 216.281 257.393 212.275 265.063 205.598C272.733 198.921 273.398 184.748 273.398 184.748L279.355 181.812C279.483 180.414 279.534 179.545 279.534 179.545C279.534 179.545 285.504 174.14 288.611 161.189C290.106 154.915 289.275 146.298 288.01 138.916Z" fill="white"/>
<path d="M261.434 92.6803C261.434 92.6803 265.013 84.2143 272.172 80.4474C276.945 78.1019 282.181 76.812 287.513 76.668L306.126 65.3296C306.126 65.3296 311.38 47.4402 329.29 40.1333C347.2 32.8263 423.354 5.55125 424.07 5.08512C424.786 4.61898 433.619 0.373398 433.619 1.0789C433.629 2.29071 433.385 3.49152 432.903 4.60639C432.188 6.49612 414.52 17.7841 414.52 17.7841C414.52 17.7841 423.111 12.6062 423.354 15.2645C423.597 17.9227 423.354 18.5526 420.247 20.4423C417.141 22.332 411.414 25.8469 410.225 26.5524C409.036 27.2579 404.498 31.4909 400.905 31.9696C397.313 32.4484 388.262 33.1413 387.546 33.8468C386.83 34.5523 363.423 56.9014 355.791 63.2635C348.159 69.6256 335.733 75.4964 335.733 75.4964C335.733 75.4964 319.025 93.1338 306.33 102.318C293.636 111.502 285.084 113.845 285.084 113.845L284.125 114.777C284.125 114.777 284.841 123.017 284.841 123.962C284.841 124.906 291.77 148.188 288.676 161.126C285.582 174.065 279.599 179.482 279.599 179.482C279.599 179.482 278.653 194.776 274.831 200.42C271.009 206.064 260.5 212.892 253.098 218.309C245.697 223.727 244.751 235.72 244.265 237.131C243.779 238.542 237.873 262.542 234.715 268.412C231.558 274.283 221.931 277.596 220.333 278.063C219.464 278.314 210.567 291.618 202.001 290.963C196.461 290.577 191.249 288.23 187.328 284.354C183.407 280.478 181.04 275.335 180.665 269.874C180.529 267.549 180.615 265.216 180.921 262.907C182.826 248.545 188.591 242.586 188.591 242.586C188.591 242.586 200.825 195.481 199.624 183.009C198.422 170.537 198.192 162.777 201.771 155.722C205.351 148.667 217.048 137.845 235.201 130.072C253.354 122.299 255.489 117.133 255.489 108.201C255.673 102.522 257.764 97.0631 261.434 92.6803V92.6803Z" stroke="#001F30" stroke-miterlimit="10" stroke-linecap="round"/>
<path d="M279.322 173.919C281.848 163.339 278.324 153.471 271.451 151.878C264.578 150.284 256.96 157.569 254.434 168.148C251.908 178.727 255.432 188.595 262.304 190.188C269.177 191.782 276.796 184.498 279.322 173.919Z" fill="#3FB0F0"/>
<path d="M235.865 218.322C222.966 221.144 217.968 215.021 217.968 215.021C217.968 215.021 219.399 224.432 233.014 225.843" stroke="#001F30" stroke-linecap="round" stroke-linejoin="round"/>
<path d="M266.175 161.617C266.175 161.617 273.577 179.255 267.607 192.672C261.637 206.089 253.033 211.204 236.811 213.85" stroke="#001F30" stroke-miterlimit="10" stroke-linecap="round"/>
<path d="M250.656 218.549C250.656 218.549 240.864 227.254 233.219 230.076C225.574 232.898 219.617 237.849 213.174 229.37" stroke="#001F30" stroke-miterlimit="10" stroke-linecap="round"/>
<path d="M327.525 65.6194C327.525 65.6194 333.495 61.6257 336.832 65.3926C340.169 69.1594 335.643 75.4711 335.643 75.4711" stroke="#001F30" stroke-linecap="round" stroke-linejoin="round"/>
<path d="M285.991 83.03C284.698 89.3282 283.755 95.6914 283.166 102.091C282.834 106.347 283.153 110.628 284.112 114.79" stroke="#001F30" stroke-linecap="round" stroke-linejoin="round"/>
<path d="M229.767 168.572L244.072 161.088" stroke="#001F30" stroke-miterlimit="10" stroke-linecap="round"/>
<path d="M423.979 5.16069C423.34 5.57643 362.859 27.2705 337.049 37.1601C339.375 37.2609 351.571 38.2687 354.805 48.6874C356.228 53.1298 356.884 57.7757 356.749 62.432C365.237 55.1629 386.829 34.5397 387.519 33.8594C388.21 33.1791 397.299 32.4484 400.878 31.9822C404.458 31.5161 408.996 27.2705 410.198 26.565C411.4 25.8595 417.114 22.332 420.22 20.4549C423.327 18.5778 423.57 17.8597 423.327 15.277C423.084 12.6944 414.493 17.7967 414.493 17.7967C414.493 17.7967 432.16 6.45831 432.876 4.61897C433.358 3.50411 433.602 2.3033 433.592 1.09149C433.528 0.448979 424.695 4.68196 423.979 5.16069Z" fill="#3FB0F0" stroke="#001F30" stroke-linecap="round" stroke-linejoin="round"/>
<path d="M414.43 17.8596L406.069 22.0926" stroke="#001F30" stroke-linecap="round" stroke-linejoin="round"/>
<path d="M245.9 229.66C243.228 230.681 239.853 232.054 236.632 233.578C227.686 237.822 218.038 240.442 208.149 241.314C200.377 241.956 193.768 238.529 190.15 236.111C189.165 240.092 188.526 242.599 188.526 242.599C188.526 242.599 182.761 248.558 180.856 262.919C180.55 265.229 180.464 267.561 180.6 269.886C180.975 275.347 183.342 280.49 187.263 284.366C191.185 288.242 196.396 290.59 201.936 290.976C210.502 291.631 219.399 278.377 220.269 278.075C221.93 277.609 231.557 274.296 234.65 268.425C237.744 262.554 243.727 238.555 244.2 237.144C244.43 236.463 244.814 233.326 245.9 229.66Z" fill="#001F30" stroke="#001F30" stroke-miterlimit="10" stroke-linecap="round"/>
<path d="M194.701 249.54C194.701 249.54 204.929 245.194 215.258 248.809" stroke="white" stroke-width="0.75" stroke-linecap="round" stroke-linejoin="round"/>
<path d="M216.281 237.169C203.1 238.63 195.468 233.881 191.595 230.126C190.713 233.906 189.946 236.98 189.383 239.184C196.139 243.329 204.116 245.104 212.024 244.224C226.239 242.498 239.138 236.766 244.852 233.918C244.904 233.624 244.968 233.322 245.044 233.011C245.236 232.092 245.492 231.096 245.798 230.038C245.798 229.975 245.798 229.912 245.862 229.837C245.965 229.509 246.067 229.169 246.182 228.829C246.187 228.778 246.187 228.728 246.182 228.678C246.577 227.513 247.042 226.373 247.575 225.263C238.32 231.751 227.559 235.845 216.281 237.169Z" fill="#3FB0F0" stroke="#001F30" stroke-miterlimit="10" stroke-linecap="round"/>
<path d="M176.241 154.512C176.241 154.512 173.928 155.671 182.275 150.267C190.623 144.862 188.105 152.685 193.781 138.802C199.457 124.919 205.721 114.576 215.986 110.809C226.252 107.042 256.575 112.459 256.575 112.459L263.734 117.398L253.763 136.446C251.362 135.282 248.736 134.636 246.062 134.554C243.387 134.471 240.726 134.953 238.256 135.968C230.138 139.495 225.83 143.728 226.75 147.495C227.671 151.262 235.341 161.618 235.341 161.618C235.341 161.618 199.188 147.621 193.461 150.67C187.734 153.718 170.284 159.967 169.325 160.446C168.367 160.925 176.241 154.512 176.241 154.512Z" fill="#3FB0F0" stroke="#001F30" stroke-miterlimit="10" stroke-linecap="round"/>
<path d="M198.498 143.489C199.712 141.738 201.054 139.709 202.422 137.379C208.635 127.035 221.048 122.563 221.048 122.563" stroke="#001F30" stroke-miterlimit="10" stroke-linecap="round"/>
<path d="M221.956 133.864C218.605 134.673 215.45 136.129 212.672 138.146C209.894 140.164 207.549 142.703 205.772 145.618" stroke="#001F30" stroke-miterlimit="10" stroke-linecap="round"/>
<path d="M215.321 167.501C215.321 167.501 200.761 165.384 189.754 174.556C178.747 183.727 179.987 193.566 179.987 193.566C179.987 193.566 169.236 198.266 167.088 203.645C165.833 206.823 164.974 210.14 164.531 213.522C164.531 213.522 158.804 218.939 154.023 224.344C149.242 229.748 145.189 230.643 144.23 237.761C143.272 244.879 143.757 262.227 149.011 279.398C154.266 296.569 157.845 304.103 159.239 307.114C160.632 310.125 173.083 325.696 175.231 326.175C177.379 326.654 179.527 327.107 181.201 326.175C182.876 325.243 195.263 322.395 194.816 318.881C194.723 317.003 194.055 315.198 192.898 313.703L192.425 312.997C192.425 312.997 194.573 308.991 193.141 307.114C191.71 305.237 190.508 304.997 187.887 302.641C185.267 300.286 183.835 299.58 180.728 299.58C177.622 299.58 174.336 299.819 174.336 299.819C174.336 299.819 169.555 297.93 169.555 284.286C169.555 270.642 173.851 258.875 175.947 252.79C177.213 249.311 177.937 245.662 178.095 241.969C178.095 241.969 179.769 244.324 191.467 238.907C203.164 233.49 205.797 218.208 205.797 218.208L188.565 220.904C197.001 220.176 205.328 218.519 213.391 215.966C226.763 211.733 232.49 211.027 237.68 191.022" fill="white"/>
<path d="M192.616 211.116C190.162 207.878 204.122 198.518 207.816 194.927C211.511 191.337 195.902 200.999 192.207 201.806C188.513 202.612 185.227 200.181 187.285 188.855C188.77 181.738 192.277 175.185 197.397 169.957C194.619 171.094 192.033 172.64 189.727 174.543C178.746 183.715 179.947 193.604 179.947 193.604C179.947 193.604 169.196 198.303 167.049 203.683C165.793 206.861 164.935 210.178 164.492 213.56C164.492 213.56 158.765 218.977 153.983 224.382C149.202 229.786 145.15 230.681 144.191 237.799C143.232 244.917 143.718 262.264 148.972 279.436C154.226 296.607 157.806 304.141 159.199 307.152C160.593 310.163 173.044 325.734 175.192 326.213C177.34 326.692 179.487 327.145 181.162 326.213C182.837 325.281 195.224 322.433 194.777 318.918C194.67 318.066 194.495 317.224 194.253 316.399C189.676 316.966 181.303 319.851 179.053 319.851C176.598 319.851 174.131 316.21 170.436 312.153C166.742 308.097 160.989 297.59 160.209 284.639C159.429 271.688 165.131 259.543 165.131 253.471C165.131 247.399 157.742 261.571 159.378 255.499C161.015 249.427 167.598 240.52 172.52 238.088C177.442 235.657 183.207 234.044 185.304 230C187.4 225.956 177.915 228.741 181.2 225.541C184.486 222.341 205.848 218.183 212.828 214.202C219.807 210.221 195.084 214.353 192.616 211.116Z" fill="#3FB0F0"/>
<path opacity="0.5" d="M192.616 211.116C190.162 207.878 204.122 198.518 207.816 194.927C211.511 191.337 195.902 200.999 192.207 201.806C188.513 202.612 185.227 200.181 187.285 188.855C188.77 181.738 192.277 175.185 197.397 169.957C194.619 171.094 192.033 172.64 189.727 174.543C178.746 183.715 179.947 193.604 179.947 193.604C179.947 193.604 169.196 198.303 167.049 203.683C165.793 206.861 164.935 210.178 164.492 213.56C164.492 213.56 158.765 218.977 153.983 224.382C149.202 229.786 145.15 230.681 144.191 237.799C143.232 244.917 143.718 262.264 148.972 279.436C154.226 296.607 157.806 304.141 159.199 307.152C160.593 310.163 173.044 325.734 175.192 326.213C177.34 326.692 179.487 327.145 181.162 326.213C182.837 325.281 195.224 322.433 194.777 318.918C194.67 318.066 194.495 317.224 194.253 316.399C189.676 316.966 181.303 319.851 179.053 319.851C176.598 319.851 174.131 316.21 170.436 312.153C166.742 308.097 160.989 297.59 160.209 284.639C159.429 271.688 165.131 259.543 165.131 253.471C165.131 247.399 157.742 261.571 159.378 255.499C161.015 249.427 167.598 240.52 172.52 238.088C177.442 235.657 183.207 234.044 185.304 230C187.4 225.956 177.915 228.741 181.2 225.541C184.486 222.341 205.848 218.183 212.828 214.202C219.807 210.221 195.084 214.353 192.616 211.116Z" fill="white"/>
<path d="M215.321 167.501C215.321 167.501 200.761 165.384 189.754 174.556C178.747 183.727 179.987 193.566 179.987 193.566C179.987 193.566 169.236 198.266 167.088 203.645C165.833 206.823 164.974 210.14 164.531 213.522C164.531 213.522 158.804 218.939 154.023 224.344C149.242 229.748 145.189 230.643 144.23 237.761C143.272 244.879 143.757 262.227 149.011 279.398C154.266 296.569 157.845 304.103 159.239 307.114C160.632 310.125 173.083 325.696 175.231 326.175C177.379 326.654 179.527 327.107 181.201 326.175C182.876 325.243 195.263 322.395 194.816 318.881C194.723 317.003 194.055 315.198 192.898 313.703L192.425 312.997C192.425 312.997 194.573 308.991 193.141 307.114C191.71 305.237 190.508 304.997 187.887 302.641C185.267 300.286 183.835 299.58 180.728 299.58C177.622 299.58 174.336 299.819 174.336 299.819C174.336 299.819 169.555 297.93 169.555 284.286C169.555 270.642 173.851 258.875 175.947 252.79C177.213 249.311 177.937 245.662 178.095 241.969C178.095 241.969 179.769 244.324 191.467 238.907C203.164 233.49 205.797 218.208 205.797 218.208L188.565 220.904C197.001 220.176 205.328 218.519 213.391 215.966C226.763 211.733 232.49 211.027 237.68 191.022" stroke="#001F30" stroke-miterlimit="10" stroke-linecap="round"/>
<path d="M178.069 242.082L176.701 231.285" stroke="#001F30" stroke-linecap="round" stroke-linejoin="round"/>
<path d="M245.632 158.556C252.561 156.44 254.235 147.974 258.288 139.029C261.491 132.389 265.103 125.948 269.103 119.741C262.116 119.836 255.166 118.718 248.572 116.44C237.821 112.661 225.165 115.269 222.787 117.851C220.409 120.434 220.64 117.146 221.113 125.146C221.586 133.146 224.692 144.673 227.504 148.679C230.317 152.685 232.043 154.978 232.043 154.978" fill="white"/>
<path d="M266.035 119.716C260.061 119.48 254.155 118.376 248.509 116.44C237.757 112.661 225.101 115.269 222.723 117.851C220.346 120.434 220.576 117.146 221.049 125.146C221.522 133.146 224.628 144.673 227.441 148.679L228.463 150.09L266.623 120.006L266.035 119.716Z" fill="#3FB0F0"/>
<path opacity="0.5" d="M266.035 119.716C260.061 119.48 254.155 118.376 248.509 116.44C237.757 112.661 225.101 115.269 222.723 117.851C220.346 120.434 220.576 117.146 221.049 125.146C221.522 133.146 224.628 144.673 227.441 148.679L228.463 150.09L266.623 120.006L266.035 119.716Z" fill="white"/>
<path d="M245.632 158.556C252.561 156.44 254.235 147.974 258.288 139.029C261.491 132.389 265.103 125.948 269.103 119.741C262.116 119.836 255.166 118.718 248.572 116.44C237.821 112.661 225.165 115.269 222.787 117.851C220.409 120.434 220.64 117.146 221.113 125.146C221.586 133.146 224.692 144.673 227.504 148.679C230.317 152.685 232.043 154.978 232.043 154.978" stroke="#001F30" stroke-miterlimit="10" stroke-linecap="round"/>
<path d="M243.97 144.673C248.208 144.705 252.433 144.193 256.537 143.149C257.086 141.801 257.662 140.427 258.288 139.029C261.491 132.389 265.103 125.948 269.103 119.741C262.116 119.836 255.166 118.718 248.572 116.44C237.821 112.661 225.165 115.269 222.787 117.851C220.409 120.434 220.64 117.146 221.113 125.146C221.463 129.744 222.273 134.297 223.529 138.739C227.389 141.914 233.717 144.572 243.97 144.673Z" stroke="#001F30" stroke-miterlimit="10" stroke-linecap="round"/>
<path d="M246.22 154.827L240.468 129.87" stroke="#001F30" stroke-linecap="round" stroke-linejoin="round"/>
<path d="M252.881 72.8255C253.57 70.043 254.074 67.2192 254.39 64.3721C254.876 59.8998 243.971 51.9755 232.747 52.9204C221.523 53.8652 225.588 64.6871 224.156 68.2146C222.724 71.742 211.973 67.9752 209.109 74.3247C206.246 80.6742 211.257 82.5639 211.257 84.4032C211.257 86.2426 202.423 91.2314 203.587 102.293C204.75 113.354 224.118 124.163 228.413 125.108C232.708 126.053 237.963 122.047 237.963 118.809C237.963 115.571 245.122 114.337 247.039 111.25C248.957 108.163 243.933 97.6061 244.163 95.2503C244.393 92.8944 251.833 83.4961 249.417 81.1403C247.001 78.7844 252.881 72.8255 252.881 72.8255Z" fill="#001F30" stroke="#001F30" stroke-miterlimit="10" stroke-linecap="round"/>
<path d="M241.452 75.4711C241.452 75.4711 245.159 75.068 245.159 66.9673C245.159 58.8667 233.245 60.895 231.596 64.1327C229.946 67.3705 231.186 73.4428 227.083 75.068C222.979 76.6931 216.396 76.6805 216.396 79.9183V84.378" stroke="white" stroke-width="0.75" stroke-linecap="round" stroke-linejoin="round"/>
<path d="M230.752 81.9466C230.752 81.9466 215.552 81.1403 207.741 94.8975" stroke="white" stroke-width="0.75" stroke-linecap="round" stroke-linejoin="round"/>
<path d="M232.834 85.5875C232.834 85.5875 222.607 85.9906 217.225 92.8692" stroke="white" stroke-width="0.75" stroke-linecap="round" stroke-linejoin="round"/>
<path d="M250.349 74.3121C251.027 73.4428 259.861 82.4883 260.206 83.5087C260.555 84.7522 260.832 86.014 261.037 87.2882C261.077 87.5264 261.166 87.7541 261.297 87.9576C261.429 88.1612 261.601 88.3363 261.804 88.4724L267.978 92.6424C268.377 92.9173 268.65 93.3354 268.738 93.8068C268.827 94.2782 268.724 94.7649 268.451 95.1621L266.304 98.2108C266.117 98.4701 266.004 98.774 265.977 99.0909C265.95 99.4078 266.01 99.726 266.15 100.012C267.876 103.666 273.987 116.642 273.578 117.65C273.097 118.887 272.155 119.897 270.944 120.472C269.755 120.938 247.793 128.232 245.159 128.472C243.139 128.648 238.282 120.472 236.134 116.667C235.881 116.248 235.47 115.945 234.99 115.824C234.511 115.704 234.003 115.776 233.577 116.025C232.657 116.548 231.618 116.838 230.556 116.866C229.493 116.895 228.44 116.662 227.492 116.188C222.711 114.059 217.265 110.066 219.604 105.593C221.944 101.121 225.817 100.894 227.492 102.066C228.604 102.847 230.573 104.485 231.762 105.467C232.049 105.713 232.406 105.864 232.784 105.9C233.162 105.936 233.542 105.855 233.871 105.669L234.881 105.089C235.122 104.96 235.33 104.779 235.49 104.56C235.651 104.34 235.759 104.088 235.807 103.822C235.855 103.556 235.841 103.282 235.767 103.022C235.693 102.761 235.561 102.521 235.38 102.318V102.318C234.997 101.839 234.695 101.303 234.485 100.73C234.485 100.73 241.401 94.8471 239.023 91.559C236.645 88.2709 230.189 83.3198 230.905 80.7371C231.621 78.1545 241.132 74.8538 245.223 74.8538C246.744 74.8034 249.851 74.9672 250.349 74.3121Z" fill="white"/>
<path d="M238.958 91.5211C241.336 94.8093 234.42 100.693 234.42 100.693C234.63 101.266 234.932 101.801 235.315 102.28V102.28C235.496 102.483 235.629 102.724 235.703 102.984C235.776 103.244 235.79 103.518 235.742 103.784C235.694 104.05 235.586 104.302 235.426 104.522C235.266 104.741 235.057 104.922 234.816 105.052L233.807 105.631C233.477 105.818 233.097 105.898 232.719 105.862C232.341 105.826 231.984 105.675 231.697 105.43C230.508 104.447 228.54 102.809 227.427 102.028C225.753 100.856 221.93 101.083 219.54 105.556C217.149 110.028 222.646 114.021 227.427 116.151C228.375 116.624 229.428 116.857 230.491 116.828C231.553 116.8 232.592 116.511 233.512 115.987C233.938 115.738 234.446 115.666 234.926 115.786C235.405 115.907 235.817 116.21 236.069 116.629C238.217 120.409 243.075 128.61 245.095 128.434C247.728 128.194 269.691 120.875 270.88 120.434C272.091 119.859 273.033 118.849 273.513 117.612C273.513 117.612 264.027 122.034 258.863 117.448C253.698 112.862 246.974 106.248 244.903 103.187C242.832 100.126 247.14 93.3605 242.832 86.885C238.524 80.4096 230.777 80.6741 230.777 80.6741C230.125 83.2693 236.568 88.2078 238.958 91.5211Z" fill="#3FB0F0"/>
<path opacity="0.5" d="M238.958 91.5211C241.336 94.8093 234.42 100.693 234.42 100.693C234.63 101.266 234.932 101.801 235.315 102.28V102.28C235.496 102.483 235.629 102.724 235.703 102.984C235.776 103.244 235.79 103.518 235.742 103.784C235.694 104.05 235.586 104.302 235.426 104.522C235.266 104.741 235.057 104.922 234.816 105.052L233.807 105.631C233.477 105.818 233.097 105.898 232.719 105.862C232.341 105.826 231.984 105.675 231.697 105.43C230.508 104.447 228.54 102.809 227.427 102.028C225.753 100.856 221.93 101.083 219.54 105.556C217.149 110.028 222.646 114.021 227.427 116.151C228.375 116.624 229.428 116.857 230.491 116.828C231.553 116.8 232.592 116.511 233.512 115.987C233.938 115.738 234.446 115.666 234.926 115.786C235.405 115.907 235.817 116.21 236.069 116.629C238.217 120.409 243.075 128.61 245.095 128.434C247.728 128.194 269.691 120.875 270.88 120.434C272.091 119.859 273.033 118.849 273.513 117.612C273.513 117.612 264.027 122.034 258.863 117.448C253.698 112.862 246.974 106.248 244.903 103.187C242.832 100.126 247.14 93.3605 242.832 86.885C238.524 80.4096 230.777 80.6741 230.777 80.6741C230.125 83.2693 236.568 88.2078 238.958 91.5211Z" fill="white"/>
<path d="M250.349 74.3121C251.027 73.4428 259.861 82.4883 260.206 83.5087C260.555 84.7522 260.832 86.014 261.037 87.2882C261.077 87.5264 261.166 87.7541 261.297 87.9576C261.429 88.1612 261.601 88.3363 261.804 88.4724L267.978 92.6424C268.377 92.9173 268.65 93.3354 268.738 93.8068C268.827 94.2782 268.724 94.7649 268.451 95.1621L266.304 98.2108C266.117 98.4701 266.004 98.774 265.977 99.0909C265.95 99.4078 266.01 99.726 266.15 100.012C267.876 103.666 273.987 116.642 273.578 117.65C273.097 118.887 272.155 119.897 270.944 120.472C269.755 120.938 247.793 128.232 245.159 128.472C243.139 128.648 238.282 120.472 236.134 116.667C235.881 116.248 235.47 115.945 234.99 115.824C234.511 115.704 234.003 115.776 233.577 116.025C232.657 116.548 231.618 116.838 230.556 116.866C229.493 116.895 228.44 116.662 227.492 116.188C222.711 114.059 217.265 110.066 219.604 105.593C221.944 101.121 225.817 100.894 227.492 102.066C228.604 102.847 230.573 104.485 231.762 105.467C232.049 105.713 232.406 105.864 232.784 105.9C233.162 105.936 233.542 105.855 233.871 105.669L234.881 105.089C235.122 104.96 235.33 104.779 235.49 104.56C235.651 104.34 235.759 104.088 235.807 103.822C235.855 103.556 235.841 103.282 235.767 103.022C235.693 102.761 235.561 102.521 235.38 102.318V102.318C234.997 101.839 234.695 101.303 234.485 100.73C234.485 100.73 241.401 94.8471 239.023 91.559C236.645 88.2709 230.189 83.3198 230.905 80.7371C231.621 78.1545 241.132 74.8538 245.223 74.8538C246.744 74.8034 249.851 74.9672 250.349 74.3121Z" stroke="#001F30" stroke-miterlimit="10" stroke-linecap="round"/>
<path d="M257.047 86.9103C257.047 86.9103 251.934 86.9103 250.489 87.6284C249.045 88.3465 247.204 93.3731 247.204 93.3731L251.947 90.5007L257.405 89.4299L258.863 85.4867L257.047 86.9103Z" fill="#001F30"/>
<path d="M257.406 91.937L253.034 94.0912H257.406" fill="white"/>
<path d="M257.406 91.937L253.034 94.0912H257.406" stroke="#001F30" stroke-miterlimit="10" stroke-linecap="round"/>
<path d="M252.803 322.547C244.534 325.054 236.598 328.526 229.166 332.89C217.967 339.705 199.315 350.54 190.967 351.044C182.62 351.548 179.986 348.927 174.975 347.05C169.964 345.173 167.304 351.283 167.304 354.811C167.304 358.338 167.304 359.988 164.914 363.289C162.523 366.59 156.349 378.76 156.349 378.76C156.349 378.76 152.999 391.937 156.349 392.404C159.698 392.87 161.833 388.41 168.762 382.766C175.691 377.122 186.659 364.877 196.452 363.944C206.244 363.012 249.939 358.527 268.041 350.086C286.143 341.645 284.993 343.964 290.247 340.008C295.501 336.052 293.583 328.48 290.963 323.303C289.569 320.376 287.529 317.794 284.993 315.744" fill="white"/>
<path d="M278.831 345.324C276.683 344.946 274.996 344.392 274.996 343.611C274.996 341.57 281.196 341.57 284.302 337.501C287.409 333.431 283.778 329.35 279.649 324.764C278.064 323.013 276.108 320.506 273.999 318.062L252.854 322.547C244.585 325.054 236.649 328.526 229.217 332.89C217.967 339.705 199.315 350.54 190.967 351.044C182.62 351.548 179.986 348.927 174.975 347.05C169.964 345.173 167.304 351.283 167.304 354.811C167.304 358.338 167.304 359.988 164.914 363.289C162.523 366.59 156.349 378.76 156.349 378.76C156.349 378.76 152.999 391.937 156.349 392.404C159.698 392.87 161.833 388.41 168.762 382.766C175.691 377.122 186.659 364.876 196.452 363.944C206.244 363.012 249.939 358.527 268.041 350.086C272.848 347.844 276.261 346.37 278.831 345.324Z" fill="#3FB0F0"/>
<path opacity="0.5" d="M278.831 345.324C276.683 344.946 274.996 344.392 274.996 343.611C274.996 341.57 281.196 341.57 284.302 337.501C287.409 333.431 283.778 329.35 279.649 324.764C278.064 323.013 276.108 320.506 273.999 318.062L252.854 322.547C244.585 325.054 236.649 328.526 229.217 332.89C217.967 339.705 199.315 350.54 190.967 351.044C182.62 351.548 179.986 348.927 174.975 347.05C169.964 345.173 167.304 351.283 167.304 354.811C167.304 358.338 167.304 359.988 164.914 363.289C162.523 366.59 156.349 378.76 156.349 378.76C156.349 378.76 152.999 391.937 156.349 392.404C159.698 392.87 161.833 388.41 168.762 382.766C175.691 377.122 186.659 364.876 196.452 363.944C206.244 363.012 249.939 358.527 268.041 350.086C272.848 347.844 276.261 346.37 278.831 345.324Z" fill="white"/>
<path d="M252.803 322.547C244.534 325.054 236.598 328.526 229.166 332.89C217.967 339.705 199.315 350.54 190.967 351.044C182.62 351.548 179.986 348.927 174.975 347.05C169.964 345.173 167.304 351.283 167.304 354.811C167.304 358.338 167.304 359.988 164.914 363.289C162.523 366.59 156.349 378.76 156.349 378.76C156.349 378.76 152.999 391.937 156.349 392.404C159.698 392.87 161.833 388.41 168.762 382.766C175.691 377.122 186.659 364.877 196.452 363.944C206.244 363.012 249.939 358.527 268.041 350.086C286.143 341.645 284.993 343.964 290.247 340.008C295.501 336.052 293.583 328.48 290.963 323.303C289.569 320.376 287.529 317.794 284.993 315.744" stroke="#001F30" stroke-miterlimit="10" stroke-linecap="round"/>
<path d="M291.999 325.847C291.999 325.847 286.31 303.939 248.265 272.255C222.698 250.939 211.256 246.378 196.695 259.077C182.134 271.776 184.998 280.028 190.303 288.053C195.609 296.078 217.034 311.347 234.702 319.12C252.369 326.893 270.279 337.702 280.302 336.757" fill="white"/>
<path d="M263.58 309.986C258.403 309.482 267.71 319.674 256.856 317.117C246.003 314.559 208.277 283.001 200.518 272.809C194.126 264.419 199.661 257.427 201.796 255.172C199.987 256.288 198.276 257.552 196.682 258.951C182.122 271.663 184.985 279.889 190.291 287.927C195.596 295.964 217.022 311.221 234.689 318.994C252.356 326.767 270.266 337.576 280.289 336.631L285.057 332.222C284.201 329.828 282.002 327.372 279.637 324.739C275.495 320.178 268.745 310.503 263.58 309.986Z" fill="#3FB0F0"/>
<path opacity="0.5" d="M263.58 309.986C258.403 309.482 267.71 319.674 256.856 317.117C246.003 314.559 208.277 283.001 200.518 272.809C194.126 264.419 199.661 257.427 201.796 255.172C199.987 256.288 198.276 257.552 196.682 258.951C182.122 271.663 184.985 279.889 190.291 287.927C195.596 295.964 217.022 311.221 234.689 318.994C252.356 326.767 270.266 337.576 280.289 336.631L285.057 332.222C284.201 329.828 282.002 327.372 279.637 324.739C275.495 320.178 268.745 310.503 263.58 309.986Z" fill="white"/>
<path d="M291.999 325.847C291.999 325.847 286.31 303.939 248.265 272.255C222.698 250.939 211.256 246.378 196.695 259.077C182.134 271.776 184.998 280.028 190.303 288.053C195.609 296.078 217.034 311.347 234.702 319.12C252.369 326.893 270.279 337.702 280.302 336.757" stroke="#001F30" stroke-miterlimit="10" stroke-linecap="round"/>
<path d="M233.461 346.546C231.045 341.293 231.633 335.384 232.796 330.824C231.582 331.479 230.367 332.159 229.166 332.89C217.967 339.705 199.315 350.54 190.967 351.044C182.62 351.548 179.986 348.927 174.975 347.05C169.964 345.173 167.304 351.283 167.304 354.811C167.304 358.338 167.304 359.988 164.914 363.289C162.523 366.59 156.349 378.76 156.349 378.76C156.349 378.76 152.999 391.937 156.349 392.404C159.698 392.87 161.833 388.41 168.762 382.766C175.691 377.122 186.659 364.877 196.452 363.944C212.833 362.411 229.124 360.052 245.26 356.877C240.098 355.103 235.856 351.39 233.461 346.546V346.546Z" fill="#3FB0F0"/>
<path opacity="0.2" d="M233.461 346.546C231.045 341.293 231.633 335.384 232.796 330.824C231.582 331.479 230.367 332.159 229.166 332.89C217.967 339.705 199.315 350.54 190.967 351.044C182.62 351.548 179.986 348.927 174.975 347.05C169.964 345.173 167.304 351.283 167.304 354.811C167.304 358.338 167.304 359.988 164.914 363.289C162.523 366.59 156.349 378.76 156.349 378.76C156.349 378.76 152.999 391.937 156.349 392.404C159.698 392.87 161.833 388.41 168.762 382.766C175.691 377.122 186.659 364.877 196.452 363.944C212.833 362.411 229.124 360.052 245.26 356.877C240.098 355.103 235.856 351.39 233.461 346.546V346.546Z" fill="black"/>
<path d="M233.461 346.546C231.045 341.293 231.633 335.384 232.796 330.824C231.582 331.479 230.367 332.159 229.166 332.89C217.967 339.705 199.315 350.54 190.967 351.044C182.62 351.548 179.986 348.927 174.975 347.05C169.964 345.173 167.304 351.283 167.304 354.811C167.304 358.338 167.304 359.988 164.914 363.289C162.523 366.59 156.349 378.76 156.349 378.76C156.349 378.76 152.999 391.937 156.349 392.404C159.698 392.87 161.833 388.41 168.762 382.766C175.691 377.122 186.659 364.877 196.452 363.944C212.833 362.411 229.124 360.052 245.26 356.877C240.098 355.103 235.856 351.39 233.461 346.546V346.546Z" stroke="#001F30" stroke-linecap="round" stroke-linejoin="round"/>
<path d="M192.029 284.815C192.029 284.815 244.251 317.747 259.566 323.239C274.881 328.732 271.404 318.427 271.404 318.427" stroke="#001F30" stroke-linecap="round" stroke-linejoin="round"/>
<path d="M238.677 349.305C238.677 349.305 253.302 350.678 263.043 341.746" stroke="#001F30" stroke-linecap="round" stroke-linejoin="round"/>
<path d="M235.469 164.893C235.469 164.893 216.958 152.962 195.532 155.482C174.106 158.002 148.666 179.595 132.175 198.064C115.684 216.533 42.3685 317.268 42.3685 317.268L40.093 300.802C39.0279 293.045 41.1087 285.187 45.8841 278.932L57.5302 263.65C57.5302 263.65 58.6935 244.854 69.0356 235.203C75.9027 228.874 83.3636 223.2 91.3179 218.259C93.9897 216.445 120.721 190.051 139.577 171.179C158.433 152.307 181.316 138.79 202.052 144.509C222.787 150.229 231.097 154.588 235.929 158.795C240.761 163.003 240.927 162.575 240.927 162.575L235.469 164.893Z" fill="#3FB0F0" stroke="#001F30" stroke-miterlimit="10" stroke-linecap="round"/>
<path d="M109.803 209.667L114.111 204.892" stroke="#001F30" stroke-miterlimit="10" stroke-linecap="round"/>
<path d="M57.53 263.65L108.026 211.305" stroke="#001F30" stroke-miterlimit="10" stroke-linecap="round"/>
<path d="M180.319 152.685C178.964 153.214 177.609 153.807 176.241 154.5" stroke="#001F30" stroke-miterlimit="10" stroke-linecap="round"/>
<path d="M237.796 164.377C237.796 164.377 211.678 143.678 184.359 151.35" stroke="#001F30" stroke-miterlimit="10" stroke-linecap="round"/>
<path d="M192.399 313.136C192.399 313.136 194.547 309.13 193.115 307.252C191.684 305.375 190.482 305.136 187.861 302.78C185.24 300.424 183.809 299.719 180.702 299.719C177.596 299.719 174.31 299.958 174.31 299.958C174.31 299.958 169.529 298.068 169.529 284.425C169.655 276.001 171.06 267.644 173.697 259.631C169.512 262.072 164.824 263.553 159.98 263.965C157.074 264.276 154.135 263.855 151.439 262.743C148.742 261.63 146.376 259.862 144.562 257.603C145.339 265.014 146.802 272.339 148.934 279.486C154.188 296.657 157.768 304.191 159.161 307.202C160.555 310.213 173.006 325.784 175.154 326.263C177.302 326.742 179.449 327.195 181.124 326.263C182.799 325.331 195.186 322.484 194.739 318.969C194.646 317.091 193.978 315.286 192.821 313.791L192.399 313.136Z" fill="#3FB0F0"/>
<path opacity="0.2" d="M194.791 319.019C194.791 318.641 194.676 318.301 194.612 317.986C194.612 317.885 194.612 317.784 194.612 317.684C194.612 317.583 194.51 317.23 194.459 317.029C194.407 316.827 194.356 316.688 194.318 316.537C189.741 317.104 181.368 319.989 179.118 319.989C176.663 319.989 174.196 316.348 170.502 312.292C166.807 308.235 161.054 297.728 160.275 284.777C159.776 277.017 161.642 269.559 163.215 263.499C162.192 263.701 161.144 263.852 160.019 263.965C157.113 264.276 154.174 263.855 151.478 262.743C148.782 261.63 146.416 259.862 144.602 257.603C144.602 257.931 144.678 258.271 144.717 258.598C144.781 259.178 144.857 259.757 144.934 260.362C144.934 260.753 145.049 261.168 145.1 261.622C145.151 262.075 145.266 262.705 145.343 263.26C145.42 263.814 145.484 264.104 145.548 264.519C145.611 264.935 145.739 265.628 145.842 266.182L146.072 267.442L146.379 269.156L146.647 270.415C146.775 271.007 146.915 271.612 147.056 272.217C147.146 272.62 147.235 273.023 147.337 273.414C147.503 274.094 147.682 274.774 147.861 275.442C147.938 275.782 148.028 276.122 148.117 276.45C148.398 277.47 148.692 278.491 148.999 279.499C154.253 296.67 157.833 304.204 159.226 307.215C159.343 307.458 159.475 307.694 159.623 307.92C159.878 308.348 160.211 308.865 160.62 309.457C161.297 310.44 162.167 311.611 163.177 312.896L163.777 313.665C168.022 319.17 173.851 325.961 175.283 326.263C177.431 326.729 179.578 327.195 181.253 326.263C181.874 325.975 182.515 325.731 183.17 325.532L184.155 325.217C188.246 323.907 195.149 321.665 194.791 319.019Z" fill="black"/>
<path d="M191.032 308.941L188.028 311.397C188.028 311.397 190.252 311.246 192.873 313.841" stroke="#001F30" stroke-linecap="round" stroke-linejoin="round"/>
<path d="M192.399 313.136C192.399 313.136 194.547 309.13 193.115 307.252C191.684 305.375 190.482 305.136 187.861 302.78C185.24 300.424 183.809 299.719 180.702 299.719C177.596 299.719 174.31 299.958 174.31 299.958C174.31 299.958 169.529 298.068 169.529 284.425C169.655 276.001 171.06 267.644 173.697 259.631C169.512 262.072 164.824 263.553 159.98 263.965C157.074 264.276 154.135 263.855 151.439 262.743C148.742 261.63 146.376 259.862 144.562 257.603C145.339 265.014 146.802 272.339 148.934 279.486C154.188 296.657 157.768 304.191 159.161 307.202C160.555 310.213 173.006 325.784 175.154 326.263C177.302 326.742 179.449 327.195 181.124 326.263C182.799 325.331 195.186 322.484 194.739 318.969C194.646 317.091 193.978 315.286 192.821 313.791L192.399 313.136Z" stroke="#001F30" stroke-linecap="round" stroke-linejoin="round"/>
<path d="M378.84 67.5342L337.676 105.619" stroke="#001F30" stroke-linecap="round" stroke-linejoin="round"/>
<path d="M333.814 109.184L327.141 115.357" stroke="#001F30" stroke-linecap="round" stroke-linejoin="round"/>
<path d="M80.6061 308.815L73.4216 315.467" stroke="#001F30" stroke-linecap="round" stroke-linejoin="round"/>
<path d="M133.76 259.656L86.3828 303.473" stroke="#001F30" stroke-linecap="round" stroke-linejoin="round"/>
<path d="M178.338 395.994L173.582 400.391" stroke="#001F30" stroke-linecap="round" stroke-linejoin="round"/>
<path d="M208.023 368.53L183.145 391.534" stroke="#001F30" stroke-linecap="round" stroke-linejoin="round"/>
<path d="M6.73996 330.282L1 335.598" stroke="#001F30" stroke-linecap="round" stroke-linejoin="round"/>
<path d="M61.3518 279.788L14.4351 323.177" stroke="#001F30" stroke-linecap="round" stroke-linejoin="round"/>
<path d="M144.665 149.624L137.467 156.276" stroke="#001F30" stroke-linecap="round" stroke-linejoin="round"/>
<path d="M197.82 100.466L150.903 143.867" stroke="#001F30" stroke-linecap="round" stroke-linejoin="round"/>
<path d="M368.638 86.7465L308.286 142.556" stroke="#001F30" stroke-linecap="round" stroke-linejoin="round"/>
<path d="M457.294 219.834C448.589 215.16 444.638 219.052 441.481 215.16C438.323 211.267 450.174 201.125 426.447 191.047C426.447 191.047 424.862 169.214 392.429 168.37C359.996 167.526 368.702 190.203 359.996 195.658C351.291 201.113 348.926 192.533 340.22 198.001C331.514 203.469 335.477 214.379 328.356 215.928C321.236 217.478 311.737 208.911 303.044 214.366C294.351 219.821 294.338 224.445 290.388 224.445C286.438 224.445 278.525 221.333 273.769 224.445C269.014 227.556 263.478 231.462 263.478 231.462H463.622C463.622 231.462 465.975 224.508 457.294 219.834Z" fill="white"/>
<path d="M167.343 93.6755C163.981 91.8739 162.459 93.3731 161.232 91.8739C160.005 90.3747 164.594 86.4567 155.441 82.5513C155.441 82.5513 154.827 74.1231 142.312 73.8207C129.797 73.5184 133.159 82.2489 129.797 84.3528C126.434 86.4567 125.527 83.093 122.126 85.2473C118.726 87.4016 120.298 91.5464 117.55 92.1763C114.801 92.8062 111.158 89.4676 107.783 91.5715C104.408 93.6754 104.421 95.477 102.899 95.477C101.378 95.477 98.3227 94.2802 96.5074 95.477C94.6921 96.6738 92.5444 98.1856 92.5444 98.1856H169.772C169.772 98.1856 170.667 95.477 167.343 93.6755Z" fill="white"/>
</svg>
